<?xml version="1.0" encoding="UTF-8"?>
<svg version="1.1" xmlns="http://www.w3.org/2000/svg" width="486" height="391">
<path d="M0 0 C0.91096436 0.79047729 0.91096436 0.79047729 1.84033203 1.59692383 C6.80884428 5.91559511 11.68083128 10.32799578 16.5 14.8125 C17.22703125 15.47958984 17.9540625 16.14667969 18.703125 16.83398438 C19.73179687 17.79208008 19.73179687 17.79208008 20.78125 18.76953125 C21.40064453 19.34292236 22.02003906 19.91631348 22.65820312 20.50708008 C24 22 24 22 24 24 C24.99 24.33 25.98 24.66 27 25 C27 25.66 27 26.32 27 27 C27.99 27.33 28.98 27.66 30 28 C30 28.66 30 29.32 30 30 C30.66 30 31.32 30 32 30 C33.515625 31.50390625 33.515625 31.50390625 35.25 33.5625 C35.86488281 34.28824219 36.47976563 35.01398438 37.11328125 35.76171875 C38.04720703 36.86966797 38.04720703 36.86966797 39 38 C39.59167969 38.66644531 40.18335938 39.33289063 40.79296875 40.01953125 C41.33566406 40.63183594 41.87835938 41.24414062 42.4375 41.875 C42.93121094 42.42929688 43.42492187 42.98359375 43.93359375 43.5546875 C45 45 45 45 45 47 C45.66 47 46.32 47 47 47 C48.7265625 48.8984375 48.7265625 48.8984375 50.625 51.375 C51.25664062 52.18710938 51.88828125 52.99921875 52.5390625 53.8359375 C54 56 54 56 54 58 C54.66 58 55.32 58 56 58 C57.23681641 59.34521484 57.23681641 59.34521484 58.6015625 61.2109375 C59.09140625 61.87867188 59.58125 62.54640625 60.0859375 63.234375 C60.59382813 63.94078125 61.10171875 64.6471875 61.625 65.375 C62.3984375 66.42300781 62.3984375 66.42300781 63.1875 67.4921875 C67 72.73689649 67 72.73689649 67 75 C67.66 75 68.32 75 69 75 C69 75.99 69 76.98 69 78 C69.66 78 70.32 78 71 78 C72.5847168 80.12036133 72.5847168 80.12036133 74.44921875 83.08203125 C75.13306641 84.16033203 75.81691406 85.23863281 76.52148438 86.34960938 C77.2436811 87.50378643 77.96568545 88.65808389 78.6875 89.8125 C79.38294922 90.91271484 80.07839844 92.01292969 80.79492188 93.14648438 C82.18607812 95.34817423 83.57266255 97.55275966 84.95458984 99.76025391 C86.31159378 101.90962634 87.68684345 104.04759342 89.08056641 106.17333984 C89.7204248 107.15125488 90.3602832 108.12916992 91.01953125 109.13671875 C91.59421143 110.00385498 92.1688916 110.87099121 92.76098633 111.7644043 C94 114 94 114 94 117 C94.66 117 95.32 117 96 117 C96.29422852 117.60295898 96.58845703 118.20591797 96.89160156 118.82714844 C99.1113662 123.32742186 101.39309139 127.76995323 103.859375 132.140625 C104.33503906 132.98367187 104.81070312 133.82671875 105.30078125 134.6953125 C106.27744121 136.41697183 107.25932934 138.13567453 108.24609375 139.8515625 C110.70988898 144.23914305 112.63144727 147.87376659 113 153 C113.66 153 114.32 153 115 153 C115.99 155.64 116.98 158.28 118 161 C125.63892641 159.53124784 132.68492291 157.07561336 139.9609375 154.3515625 C141.80046494 153.67086197 141.80046494 153.67086197 143.67715454 152.97640991 C146.91997078 151.77640511 150.16018057 150.56951637 153.39984131 149.36102295 C156.66871523 148.14291008 159.93988324 146.93099306 163.2109375 145.71875 C168.02916352 143.93276595 172.84586926 142.14274315 177.66162109 140.35009766 C178.72419128 139.9570343 179.78676147 139.56397095 180.88153076 139.15899658 C182.96684309 138.38397856 185.04861098 137.59935852 187.12677002 136.80535889 C188.58696564 136.25467743 188.58696564 136.25467743 190.07666016 135.69287109 C190.93184235 135.36596283 191.78702454 135.03905457 192.66812134 134.70223999 C195 134 195 134 199 134 C197.69059603 138.13811636 196.15027856 142.02614872 194.3046875 145.953125 C193.76191162 147.11215332 193.21913574 148.27118164 192.65991211 149.46533203 C192.0649992 150.72691528 191.47002672 151.98847043 190.875 153.25 C190.25174848 154.57782802 189.62878937 155.90579333 189.00610352 157.23388672 C187.34778325 160.76837313 185.68523849 164.30085403 184.0211792 167.8326416 C183.00864548 169.98165077 181.9966608 172.13091757 180.98486328 174.28027344 C178.28929252 180.00632231 175.59366235 185.73234251 172.89624023 191.45751953 C168.18354827 201.46361633 163.51191912 211.48799224 158.86303711 221.52392578 C154.45316564 231.03892791 150.00423175 240.53524403 145.54776001 250.0284729 C141.04942602 259.61208138 136.57611528 269.20687358 132.125 278.8125 C127.14040103 289.56909922 122.10060926 300.29794646 117 311 C112.69396377 310.43400244 109.21865882 309.39423781 105.2890625 307.55859375 C104.20753906 307.05650391 103.12601562 306.55441406 102.01171875 306.03710938 C100.89410156 305.50923828 99.77648437 304.98136719 98.625 304.4375 C97.54605469 303.93669922 96.46710938 303.43589844 95.35546875 302.91992188 C89.24175547 300.06469535 83.19065395 297.10321496 77.16796875 294.0625 C69.79077065 290.34425925 62.3135895 286.88488313 54.77792358 283.50140381 C51.16106607 281.87690946 47.54934841 280.24106307 43.9375 278.60546875 C42.88443916 278.1288681 42.88443916 278.1288681 41.81010437 277.64263916 C35.84800234 274.94021321 29.92508804 272.16131628 24.01904297 269.33862305 C17.30682854 266.13348515 10.5617092 263.00139644 3.8125 259.875 C-17.49702192 249.99960558 -38.75546792 240.01436527 -60 230 C-60 229.01 -60 228.02 -60 227 C-59.32000443 226.75467529 -58.64000885 226.50935059 -57.93940735 226.2565918 C-51.42602536 223.90635452 -44.91330796 221.55428359 -38.40127277 219.20031738 C-35.05602731 217.99114836 -31.71055745 216.78260942 -28.36450195 215.57568359 C-12.52083817 209.86030077 3.28835772 204.07112383 19 198 C16.65800672 193.31461117 16.65800672 193.31461117 14.31225586 188.63110352 C12.52411996 185.06369013 10.74760996 181.49170685 9.00390625 177.90234375 C5.12114078 169.94843329 0.93338901 162.31991645 -3.7265625 154.79296875 C-5.55107179 151.81792324 -7.20719352 148.77335212 -8.8515625 145.6953125 C-11.85679282 140.14555262 -15.21518512 134.91182822 -18.75 129.6875 C-19.65709717 128.33434692 -19.65709717 128.33434692 -20.58251953 126.95385742 C-24.65241215 120.91034122 -28.81397301 114.93881576 -33.15527344 109.08666992 C-36 105.20810157 -36 105.20810157 -36 103 C-36.66 103 -37.32 103 -38 103 C-39.19140625 101.63671875 -39.19140625 101.63671875 -40.5625 99.6875 C-45.54104927 92.82221445 -50.95681752 86.29855813 -56.5625 79.9375 C-59 77 -59 77 -59 75 C-59.66 75 -60.32 75 -61 75 C-62.5859375 73.390625 -62.5859375 73.390625 -64.375 71.25 C-66.33757727 68.93096298 -68.2588295 66.74780716 -70.4375 64.625 C-72 63 -72 63 -72 61 C-72.99 60.67 -73.98 60.34 -75 60 C-76.6875 58.5625 -76.6875 58.5625 -78 57 C-78 56.34 -78 55.68 -78 55 C-78.85851562 54.63455078 -78.85851562 54.63455078 -79.734375 54.26171875 C-82.40433538 52.77482702 -84.13829007 51.01916092 -86.25 48.8125 C-90.34088377 44.64230992 -94.52041823 40.7472057 -99 37 C-99.53979492 36.54641113 -100.07958984 36.09282227 -100.63574219 35.62548828 C-116.42652658 22.01761832 -116.42652658 22.01761832 -134 11 C-134 10.34 -134 9.68 -134 9 C-134.54140625 8.9071875 -135.0828125 8.814375 -135.640625 8.71875 C-138.71515812 7.78213726 -141.04161033 6.23226954 -143.75 4.5 C-186.82107654 -22.45617291 -233.30708706 -35.30851786 -284 -35 C-284 -35.99 -284 -36.98 -284 -38 C-277.89669797 -43.46781722 -270.22697642 -47.2466037 -263 -51 C-262.04480469 -51.53238281 -261.08960938 -52.06476562 -260.10546875 -52.61328125 C-172.76425136 -99.46091326 -69.32932676 -60.90356975 0 0 Z " fill="#060606" transform="translate(284,73)"/>
<path d="M0 0 C-1.2976551 4.08364114 -2.8037513 7.94764816 -4.6015625 11.8359375 C-5.33632813 13.43115234 -5.33632813 13.43115234 -6.0859375 15.05859375 C-6.59382813 16.15300781 -7.10171875 17.24742187 -7.625 18.375 C-8.140625 19.49261719 -8.65625 20.61023438 -9.1875 21.76171875 C-10.45553228 24.50912202 -11.7264468 27.2551527 -13 30 C-14.33941342 25.98175973 -13.21990745 24.81138829 -11.375 21.0625 C-8.35869971 14.79028678 -5.62431097 8.44465748 -3 2 C-3.99 1.67 -4.98 1.34 -6 1 C-4 0 -4 0 0 0 Z " fill="#C1C1C1" transform="translate(483,207)"/>
<path d="M0 0 C0.66 0.33 1.32 0.66 2 1 C1.67 1.33 1.34 1.66 1 2 C1.75925781 2.04898438 2.51851563 2.09796875 3.30078125 2.1484375 C4.29464844 2.22320312 5.28851563 2.29796875 6.3125 2.375 C7.79169922 2.47941406 7.79169922 2.47941406 9.30078125 2.5859375 C12 3 12 3 15 5 C9.06 5 3.12 5 -3 5 C-3 4.01 -3 3.02 -3 2 C-2.01 1.34 -1.02 0.68 0 0 Z " fill="#B0B0B0" transform="translate(3,33)"/>
<path d="M0 0 C-1.09068668 3.77545388 -1.9083091 6.47043472 -5 9 C-4.34 6.69 -3.68 4.38 -3 2 C-3.99 1.67 -4.98 1.34 -6 1 C-4 0 -4 0 0 0 Z " fill="#A6A6A6" transform="translate(483,207)"/>
</svg>
