<?xml version="1.0" standalone="no"?>
<!DOCTYPE svg PUBLIC "-//W3C//DTD SVG 20010904//EN"
 "http://www.w3.org/TR/2001/REC-SVG-20010904/DTD/svg10.dtd">
<svg version="1.0" xmlns="http://www.w3.org/2000/svg"
 width="128.000000pt" height="128.000000pt" viewBox="0 0 128.000000 128.000000"
 preserveAspectRatio="xMidYMid meet">

<g transform="translate(0.000000,128.000000) scale(0.100000,-0.100000)"
fill="#000000" stroke="none">
<path d="M829 1248 c-8 -20 -29 -41 -51 -53 -42 -22 -44 -34 -6 -52 28 -14 46
-33 63 -66 16 -33 33 -31 49 7 10 24 27 42 50 53 45 21 46 39 1 58 -25 10 -40
25 -50 50 -19 44 -37 45 -56 3z m44 -100 c-15 -17 -17 -17 -35 -1 -17 15 -17
17 -1 35 15 17 17 17 35 1 17 -15 17 -17 1 -35z"/>
<path d="M1162 1231 c-9 -17 -29 -36 -44 -42 -35 -15 -35 -26 0 -46 16 -9 36
-29 45 -45 18 -32 33 -29 47 8 5 13 21 29 35 34 14 5 25 16 25 25 0 9 -11 20
-25 25 -14 5 -30 21 -35 34 -14 38 -29 40 -48 7z m33 -60 c7 -12 -12 -24 -25
-16 -11 7 -4 25 10 25 5 0 11 -4 15 -9z"/>
<path d="M1032 1105 c-7 -14 -23 -30 -37 -37 -32 -14 -32 -35 1 -50 14 -7 32
-25 40 -40 8 -15 19 -28 24 -28 5 0 16 13 24 28 8 15 26 33 40 40 33 15 33 28
-2 46 -15 8 -33 26 -40 40 -15 33 -36 33 -50 1z m42 -54 c3 -5 -1 -14 -8 -20
-16 -13 -32 2 -21 19 8 12 22 13 29 1z"/>
<path d="M456 978 c-178 -15 -216 -36 -261 -143 -16 -36 -30 -65 -32 -65 -2 0
-13 4 -23 10 -10 5 -39 7 -65 3 -58 -7 -84 -39 -67 -79 12 -25 17 -28 64 -38
l27 -6 -30 -57 -30 -57 3 -173 3 -172 29 -30 c17 -17 46 -36 65 -41 48 -13
954 -13 1002 0 19 5 48 24 65 41 l29 30 3 172 3 173 -30 56 -30 57 35 7 c61
11 82 78 33 104 -24 13 -98 17 -120 7 -12 -6 -22 6 -43 58 -47 110 -81 127
-281 144 -136 12 -207 12 -349 -1z m349 -38 c66 -6 134 -15 152 -21 42 -13 74
-53 103 -125 13 -33 48 -99 79 -149 l56 -90 3 -112 4 -113 -544 -2 c-508 -3
-543 -4 -546 -20 -3 -17 28 -18 542 -18 l546 0 0 -31 c0 -43 -16 -69 -55 -85
-50 -21 -960 -21 -1010 0 -53 22 -57 39 -53 219 l3 162 41 65 41 65 447 3
c438 2 446 3 446 22 0 20 -7 20 -430 20 -286 0 -430 3 -430 10 0 27 60 139 85
158 31 25 55 30 180 41 132 12 206 12 340 1z m-677 -218 c4 -25 -18 -29 -64
-12 -29 11 -24 24 11 33 35 8 50 3 53 -21z m1106 7 c10 -9 -34 -29 -65 -29
-19 0 -27 29 -12 44 8 8 64 -2 77 -15z"/>
<path d="M136 549 c-21 -30 -20 -61 2 -88 13 -18 37 -25 117 -36 60 -8 104
-10 109 -5 11 11 -16 75 -47 113 -19 22 -33 27 -93 33 -67 6 -72 5 -88 -17z
m156 -52 c27 -35 22 -39 -39 -31 -72 8 -93 19 -93 46 0 19 4 20 58 14 42 -5
62 -12 74 -29z"/>
<path d="M1017 563 c-33 -4 -42 -11 -68 -50 -35 -56 -44 -82 -32 -93 10 -11
200 15 218 30 23 19 29 68 11 95 -17 26 -31 28 -129 18z m100 -49 c4 -10 -1
-22 -10 -29 -17 -12 -126 -29 -134 -21 -11 11 31 55 55 59 60 9 83 7 89 -9z"/>
<path d="M364 537 c-3 -8 8 -42 25 -75 23 -45 37 -61 58 -67 41 -10 365 -8
393 3 30 11 90 126 74 142 -6 6 -55 6 -134 -1 -115 -10 -243 -7 -362 7 -37 5
-49 2 -54 -9z m496 -45 c0 -1 -7 -16 -15 -32 -14 -27 -17 -28 -110 -32 -52 -1
-138 -1 -190 0 -93 4 -96 5 -110 32 -8 16 -15 31 -15 32 0 2 99 4 220 4 121 0
220 -2 220 -4z"/>
<path d="M40 88 c0 -37 5 -69 12 -76 16 -16 150 -16 166 0 18 18 16 88 -3 88
-9 0 -18 -12 -21 -30 -6 -29 -9 -30 -60 -30 l-53 0 -3 52 c-2 41 -7 54 -20 56
-16 3 -18 -5 -18 -60z"/>
<path d="M1207 144 c-4 -4 -7 -29 -7 -56 l0 -49 -57 3 c-55 3 -58 4 -61 31 -3
20 -8 27 -20 25 -23 -4 -27 -44 -8 -74 15 -22 23 -24 90 -24 90 0 98 8 94 86
-3 53 -14 74 -31 58z"/>
</g>
</svg>
