<svg version="1.1" id="Layer_1" xmlns="http://www.w3.org/2000/svg" xmlns:xlink="http://www.w3.org/1999/xlink" x="0px" y="0px"
	 width="100%" viewBox="0 0 512 512" enable-background="new 0 0 512 512" xml:space="preserve">
<path fill="#000" opacity="1.000000" stroke="none" 
	d="
M513.000000,373.531342 
	C509.377563,376.729614 505.281952,377.406464 500.803314,377.401764 
	C432.137024,377.329620 363.470581,377.378937 294.804321,377.281738 
	C290.361328,377.275452 287.992706,378.122498 286.032837,382.911957 
	C281.919281,392.964874 274.043884,399.361053 262.973236,401.325775 
	C244.782562,404.554138 230.989395,393.560577 226.891403,380.339020 
	C225.933472,377.248383 223.804062,377.344574 221.422943,377.345367 
	C207.256348,377.350189 193.089661,377.364380 178.923203,377.317200 
	C175.168747,377.304688 171.579956,376.772339 169.592087,372.898254 
	C166.555603,366.980560 170.209427,360.734589 176.922485,360.690094 
	C190.588501,360.599518 204.255508,360.661957 217.922119,360.660645 
	C226.250092,360.659851 230.890350,356.086639 231.655060,347.555420 
	C233.562469,326.276184 235.654358,305.013428 237.566010,283.734558 
	C239.018692,267.564453 240.217224,251.371323 241.698593,235.203979 
	C242.922256,221.849197 244.268509,208.502487 245.819977,195.182449 
	C246.421341,190.019455 249.347702,186.088181 254.587723,184.851349 
	C259.130127,183.779190 263.394104,185.141830 265.945892,189.194763 
	C268.360352,193.029541 268.873138,197.633179 269.302460,202.084717 
	C271.018890,219.881470 272.660706,237.685760 274.241241,255.495148 
	C275.354187,268.036133 276.227966,280.598663 277.384064,293.135376 
	C278.554077,305.822906 280.050751,318.480713 281.169891,331.172241 
	C281.548248,335.462982 282.027191,339.774841 282.178131,344.050476 
	C282.330994,348.379974 283.649567,352.053131 285.293762,355.927216 
	C286.960846,359.855194 289.413940,360.832703 293.385956,360.729462 
	C302.879486,360.482666 312.383789,360.651733 321.883759,360.652283 
	C363.883575,360.654724 405.883423,360.659241 447.883240,360.656799 
	C454.354706,360.656433 454.052612,360.655731 453.752319,354.290344 
	C452.553497,328.878174 445.484222,305.014740 434.584076,282.255127 
	C430.223328,273.149780 425.028717,264.408813 419.163208,256.129913 
	C416.640411,252.569122 415.854828,248.749756 418.222443,244.959885 
	C420.074127,241.995834 423.244415,241.255051 426.598022,241.759720 
	C429.391510,242.180099 431.436371,243.877930 433.014984,246.130814 
	C450.217255,270.680756 461.572906,297.686523 467.391296,327.099945 
	C469.357361,337.038788 470.028717,347.106140 471.246521,357.117615 
	C471.601624,360.036957 472.923798,360.702332 475.462372,360.666473 
	C480.794525,360.591095 486.136200,360.479004 491.459381,360.713287 
	C495.317657,360.883148 496.864716,359.565002 496.709473,355.569611 
	C496.147491,341.101501 493.706024,326.931122 490.374268,312.887726 
	C481.918152,277.245087 465.810699,245.288147 442.704376,217.042175 
	C429.216156,200.553757 413.595764,186.151764 396.173981,173.628937 
	C367.092255,152.724960 334.933167,139.335770 299.913177,132.698929 
	C289.682617,130.760071 279.300659,129.733475 268.818481,129.155655 
	C246.274445,127.912926 224.208832,130.360962 202.268463,135.139648 
	C196.222565,136.456467 192.216904,133.872986 190.905746,128.318512 
	C189.977005,124.384094 193.152969,119.958542 198.430084,118.729958 
	C208.909500,116.290192 219.532166,114.742615 230.237137,113.455269 
	C238.835419,112.421272 247.470825,112.398834 256.038605,111.944786 
	C266.726593,111.378372 277.586609,112.545029 288.273041,113.805305 
	C305.563812,115.844460 322.593292,119.475975 339.090759,125.121956 
	C369.725464,135.606171 397.646759,150.978241 422.391144,172.000778 
	C451.678406,196.882889 474.688354,226.574738 490.747589,261.498383 
	C500.777435,283.310059 507.266571,306.265198 511.234070,329.921783 
	C512.026855,334.648926 512.290344,339.464844 512.898926,344.619904 
	C513.000000,354.354218 513.000000,363.708466 513.000000,373.531342 
M259.642548,279.685730 
	C258.807251,271.898956 257.971954,264.112213 257.136658,256.325439 
	C256.125671,260.438751 255.910187,264.561707 255.506760,268.641663 
	C253.535706,288.575104 251.948822,308.547241 250.315155,328.513000 
	C249.435196,339.267548 249.511520,339.165680 260.724762,338.708008 
	C263.850861,338.580444 264.919586,337.351074 264.649200,334.458405 
	C264.232941,330.005341 263.846649,325.549500 263.431946,321.096283 
	C262.175232,307.600708 260.911011,294.105865 259.642548,279.685730 
M261.469543,355.751617 
	C259.494324,355.623260 257.513428,355.329407 255.544876,355.396515 
	C248.709534,355.629486 242.707260,361.657227 242.350693,368.507446 
	C241.923584,376.712769 246.773865,383.499908 253.901062,384.670380 
	C262.112122,386.018799 268.727081,382.037231 271.197723,374.259308 
	C273.570953,366.788055 270.238586,360.096466 261.469543,355.751617 
z"/>
<path fill="#000" opacity="1.000000" stroke="none" 
	d="
M1.000000,338.468658 
	C2.153064,337.389099 2.484529,336.389404 2.634987,335.132690 
	C8.030989,290.061615 25.165644,249.826462 52.214928,213.524078 
	C62.595261,199.592834 74.479179,187.072891 87.386513,175.683472 
	C108.547791,157.010727 132.127151,141.879456 158.564529,131.535858 
	C161.626083,130.338028 164.403946,128.667007 167.961899,128.539841 
	C172.991882,128.360046 176.003143,130.255936 176.904938,135.121094 
	C177.760788,139.738403 175.329163,142.793823 171.409546,144.657791 
	C167.368271,146.579590 163.150436,148.126022 159.054871,149.938477 
	C144.131424,156.542725 130.062973,164.641998 116.856201,174.231903 
	C104.454323,183.237335 92.950401,193.281647 82.518608,204.503067 
	C61.151676,227.487320 44.670494,253.534088 33.270966,282.838135 
	C26.017038,301.485321 21.337067,320.737396 18.568768,340.483948 
	C17.811003,345.889130 17.753336,351.391846 17.357630,356.848633 
	C17.154795,359.645721 18.462091,360.722687 21.215065,360.675751 
	C27.046196,360.576324 32.880905,360.588745 38.712646,360.666870 
	C41.421143,360.703156 42.472420,359.602173 42.707611,356.848328 
	C44.290379,338.315643 46.953346,319.950409 52.941948,302.259369 
	C61.697533,276.394287 74.590332,252.758743 92.097801,231.757645 
	C108.528770,212.047882 127.865494,195.684509 150.113754,182.882782 
	C170.707825,171.032883 192.654419,162.659912 216.058258,158.298904 
	C236.068893,154.570190 256.167572,153.761124 276.497437,155.477325 
	C298.860565,157.365204 320.212372,162.759872 340.858276,171.366608 
	C359.856934,179.286621 377.321899,189.732040 393.127014,202.904816 
	C398.733856,207.577850 404.100769,212.538788 409.575531,217.370163 
	C411.359314,218.944321 412.596313,220.893951 413.544891,223.059753 
	C415.379700,227.249039 414.067596,230.809525 410.613739,233.136246 
	C407.413635,235.292023 403.811005,235.174133 400.528046,232.518585 
	C391.878815,225.522324 384.333618,217.300034 375.350739,210.637604 
	C350.373108,192.112167 322.693878,179.944458 292.124664,174.404587 
	C269.901764,170.377274 247.705643,170.358322 225.335342,174.016022 
	C205.141769,177.317810 185.998047,183.561829 167.849396,192.656998 
	C153.747635,199.724075 140.829620,208.724472 128.749023,219.043320 
	C112.137840,233.232071 98.324654,249.600891 87.268135,268.363129 
	C74.941383,289.280792 66.460152,311.611481 62.281929,335.593018 
	C60.999596,342.953186 60.714359,350.389923 59.644386,357.751526 
	C59.231663,360.591125 61.215218,360.623688 63.115494,360.634003 
	C69.114815,360.666626 75.114380,360.661102 81.113846,360.661438 
	C102.445381,360.662628 123.776939,360.646759 145.108444,360.667084 
	C151.516861,360.673187 155.242111,363.861328 155.161377,369.142761 
	C155.094955,373.489502 150.436188,377.322235 144.926956,377.325562 
	C100.264084,377.352509 55.601166,377.324371 10.938307,377.365387 
	C7.450240,377.368591 4.413711,376.375702 1.329019,374.165527 
	C1.000000,362.312439 1.000000,350.624878 1.000000,338.468658 
z"/>
<path fill="#000" opacity="1.000000" stroke="none" 
	d="
M116.736328,346.352234 
	C105.612885,346.358246 94.960716,346.321014 84.309219,346.388550 
	C81.222496,346.408112 78.214424,345.872253 75.791389,344.123138 
	C72.856987,342.004913 71.829727,338.733490 73.045074,335.257263 
	C74.199669,331.954742 76.252289,329.591827 80.321037,329.622314 
	C93.801590,329.723358 107.283371,329.670197 120.764656,329.658691 
	C125.036392,329.655060 127.720695,331.515869 128.281906,335.924103 
	C128.925842,340.982147 126.988007,344.249420 122.561783,345.391052 
	C120.811234,345.842560 118.994469,346.037292 116.736328,346.352234 
z"/>
<path fill="#000" opacity="1.000000" stroke="none" 
	d="
M403.045044,346.371185 
	C398.754700,346.247284 394.969543,346.596497 391.192902,345.444336 
	C386.329468,343.960541 385.428680,340.422821 385.725983,336.145813 
	C386.033905,331.715332 388.706390,329.673615 392.990479,329.665894 
	C406.627472,329.641327 420.264587,329.665161 433.901642,329.673767 
	C438.424530,329.676605 440.432037,332.598907 441.193573,336.457764 
	C441.953491,340.308319 440.320221,343.308624 436.734222,344.958099 
	C434.472961,345.998260 432.041138,346.419739 429.480560,346.392670 
	C420.833649,346.301086 412.185089,346.365692 403.045044,346.371185 
z"/>
<path fill="#000" opacity="1.000000" stroke="none" 
	d="
M155.727661,222.612885 
	C154.982742,217.545761 157.010635,214.330795 161.277145,212.877060 
	C165.532867,211.427002 169.345230,213.526245 171.950256,217.988922 
	C174.792572,222.858078 177.808807,227.626709 180.602829,232.522720 
	C182.672562,236.149551 182.754196,239.815491 179.808701,243.094681 
	C177.324783,245.860016 174.176758,246.133087 170.714554,245.370453 
	C169.086136,245.011765 167.967804,244.101227 167.173691,242.835114 
	C163.123917,236.378281 158.665344,230.152222 155.727661,222.612885 
z"/>
<path fill="#000" opacity="1.000000" stroke="none" 
	d="
M353.655273,224.215225 
	C350.415894,229.678207 347.551666,234.919266 344.379242,239.966644 
	C341.682892,244.256485 338.134857,245.322540 334.277130,243.476852 
	C329.686066,241.280304 327.567657,237.054108 329.734070,232.480942 
	C332.701965,226.215820 336.106689,220.107758 339.873596,214.287964 
	C342.533508,210.178375 347.193359,209.513870 351.290833,211.712112 
	C355.329071,213.878555 356.097839,217.476837 353.655273,224.215225 
z"/>
<path fill="#000" opacity="1.000000" stroke="none" 
	d="
M101.887589,273.491455 
	C105.556496,267.291565 109.373825,266.106110 115.274536,269.252441 
	C120.522545,272.050720 125.714684,274.967651 130.810486,278.033356 
	C135.260941,280.710785 136.433060,285.195923 134.139740,289.579987 
	C132.054214,293.566772 127.792007,295.123718 123.183716,292.914459 
	C117.677071,290.274567 112.434509,287.085632 107.063683,284.160004 
	C102.964180,281.926849 101.125343,278.557220 101.887589,273.491455 
z"/>
<path fill="#000" opacity="1.000000" stroke="none" 
	d="
M376.806580,282.878662 
	C377.251312,278.317413 379.632599,275.707977 383.254913,273.750061 
	C387.754059,271.318176 391.983521,268.392120 396.439117,265.873596 
	C400.944427,263.327026 406.538971,264.390961 408.926147,268.012543 
	C411.457825,271.853485 410.703918,276.399261 406.168854,279.750153 
	C400.591461,283.871155 394.641205,287.564484 388.177704,290.155670 
	C382.751282,292.331055 379.350586,290.068939 376.806580,282.878662 
z"/>
</svg>